# xmcd
#
# Track frame offsets:
#	150
#	17005
#	38822
#	74597
#
# Disc length: 1219 seconds
#
# Revision: 0
# Processed by: cddbd v1.4PL0 Copyright (c) Steve Scherf et al.
# Submitted via: EasyCDDAExtractor 4.6.0.1
#
DISCID=2f04c104
DTITLE=Zig and Zag - Hands Up
DYEAR=1995
DGENRE=
TTITLE0=rodeo radio edit
TTITLE1=rednex fx mix
TTITLE2=raging bull mix
TTITLE3=the dub, the bad and the ugly mix
EXTD=
EXTT0=
EXTT1=
EXTT2=
EXTT3=
PLAYORDER=
